<?xml version="1.0"?>
<svg xmlns="http://www.w3.org/2000/svg" xmlns:xlink="http://www.w3.org/1999/xlink" version="1.1" id="Capa_1" x="0px" y="0px" viewBox="0 0 461.845 461.845" style="enable-background:new 0 0 461.845 461.845;" xml:space="preserve" width="512px" height="512px" class=""><g><g>
	<g>
		<g>
			<path d="M156.196,361.535c-27.7,0-50.155,22.455-50.155,50.155s22.455,50.155,50.155,50.155s50.155-22.455,50.155-50.155     S183.896,361.535,156.196,361.535z M156.196,440.947L156.196,440.947c-16.158,0-29.257-13.099-29.257-29.257     c0-16.158,13.099-29.257,29.257-29.257s29.257,13.099,29.257,29.257C185.454,427.848,172.355,440.947,156.196,440.947z" data-original="#000000" class="active-path" data-old_color="#000000" fill="#FFFFFF"/>
			<path d="M344.801,361.535c-27.7,0-50.155,22.455-50.155,50.155s22.455,50.155,50.155,50.155c27.7,0,50.155-22.455,50.155-50.155     S372.5,361.535,344.801,361.535z M344.801,440.947C344.801,440.947,344.801,440.947,344.801,440.947L344.801,440.947     c-16.158,0-29.257-13.099-29.257-29.257c0-16.158,13.099-29.257,29.257-29.257s29.257,13.099,29.257,29.257     C374.058,427.848,360.959,440.947,344.801,440.947z" data-original="#000000" class="active-path" data-old_color="#000000" fill="#FFFFFF"/>
			<path d="M459.217,73.143c-1.911-2.857-4.954-4.759-8.359-5.224H99.249C90.89,26.122,54.841,0,12.001,0h-1.045     C5.185,0,0.507,4.678,0.507,10.449s4.678,10.449,10.449,10.449h1.045c32.952-0.712,61.431,22.872,66.873,55.38l34.482,201.665     c5.342,29.801,31.374,51.421,61.649,51.2h209.502c5.771,0,10.449-4.678,10.449-10.449c0-5.771-4.678-10.449-10.449-10.449     H175.005c-20.011,0.546-37.379-13.704-40.751-33.437l-2.612-13.584h232.49c28.366-0.576,52.998-19.687,60.604-47.02     l36.049-131.135C461.897,79.702,461.313,76.004,459.217,73.143z M404.36,210.024c-5.135,17.953-21.556,30.322-40.229,30.302     H127.984l-15.151-88.816h307.722L404.36,210.024z M426.825,130.612H109.176l-6.269-41.796h334.367L426.825,130.612z" data-original="#000000" class="active-path" data-old_color="#000000" fill="#FFFFFF"/>
		</g>
	</g>
</g></g> </svg>
